<?xml version="1.0" standalone="no"?>
<!DOCTYPE svg PUBLIC "-//W3C//DTD SVG 20010904//EN"
 "http://www.w3.org/TR/2001/REC-SVG-20010904/DTD/svg10.dtd">
<svg version="1.0" xmlns="http://www.w3.org/2000/svg"
 width="149.000000pt" height="147.000000pt" viewBox="0 0 149.000000 147.000000"
 preserveAspectRatio="xMidYMid meet">

<g transform="translate(0.000000,147.000000) scale(0.100000,-0.100000)"
 stroke="none">
<path d="M595 1444 c-262 -55 -485 -279 -540 -542 -95 -457 239 -872 701 -872
322 0 594 207 691 525 14 46 18 92 18 195 -1 121 -4 143 -29 215 -124 359
-471 556 -841 479z m-97 -318 c-12 -55 3 -114 35 -144 23 -22 25 -22 83 -7 75
19 203 19 278 0 65 -17 76 -13 103 38 10 21 14 49 11 94 -2 34 -1 63 4 63 14
0 79 -63 94 -91 21 -41 17 -100 -10 -151 l-23 -44 52 9 c78 14 89 7 80 -51
-10 -67 -40 -110 -92 -133 -25 -10 -53 -19 -63 -19 -14 0 -27 -26 -59 -120
-42 -122 -80 -196 -106 -207 -8 -3 -15 -14 -15 -25 0 -11 -15 -35 -34 -54 -28
-28 -42 -34 -75 -34 -74 0 -121 37 -121 95 0 14 -4 24 -9 21 -25 -16 -87 105
-130 252 -19 61 -25 72 -44 72 -40 1 -106 38 -127 72 -24 40 -37 115 -21 131
8 8 28 8 70 1 l59 -10 -20 29 c-26 36 -35 116 -18 157 12 29 82 100 99 100 5
0 4 -19 -1 -44z"/>
<path d="M540 711 c0 -23 58 -71 84 -71 55 0 14 67 -46 77 -26 4 -38 2 -38 -6z"/>
<path d="M910 713 c-51 -19 -69 -73 -24 -73 25 0 84 50 84 71 0 10 -36 11 -60
2z"/>
<path d="M660 414 c0 -14 3 -14 15 -4 8 7 15 14 15 16 0 2 -7 4 -15 4 -8 0
-15 -7 -15 -16z"/>
<path d="M842 401 c13 -15 24 -28 25 -26 8 5 -24 55 -35 55 -9 0 -5 -10 10
-29z"/>
<path d="M680 325 c0 -36 104 -49 133 -17 10 10 17 22 17 25 0 4 -34 7 -75 7
-59 0 -75 -3 -75 -15z"/>
</g>
</svg>
