<?xml version="1.0" standalone="no"?>
<!DOCTYPE svg PUBLIC "-//W3C//DTD SVG 20010904//EN"
 "http://www.w3.org/TR/2001/REC-SVG-20010904/DTD/svg10.dtd">
<svg version="1.0" xmlns="http://www.w3.org/2000/svg"
 width="146.000000pt" height="145.000000pt" viewBox="0 0 146.000000 145.000000"
 preserveAspectRatio="xMidYMid meet">

<g transform="translate(0.000000,145.000000) scale(0.100000,-0.100000)"
 stroke="none">
<path d="M588 1415 c-371 -77 -623 -450 -557 -821 70 -398 446 -655 847 -579
263 50 477 252 549 517 24 86 24 280 0 366 -66 245 -250 432 -497 507 -76 22
-257 28 -342 10z m-164 -360 c3 -13 24 -43 46 -66 34 -36 43 -40 67 -35 56 14
291 18 359 7 64 -12 68 -11 91 11 14 13 36 43 51 67 23 40 26 42 39 25 19 -26
16 -112 -7 -163 l-20 -43 25 6 c14 4 45 9 69 12 38 6 44 4 49 -15 7 -27 -9
-96 -30 -128 -17 -26 -103 -73 -134 -73 -11 0 -23 -23 -39 -77 -12 -43 -38
-113 -57 -155 -29 -62 -42 -79 -67 -89 -17 -7 -41 -21 -53 -31 -30 -28 -92
-34 -131 -14 -18 9 -32 21 -32 26 0 6 -9 10 -21 10 -37 0 -74 51 -116 160 -22
58 -43 119 -47 136 -6 25 -14 32 -49 42 -94 26 -137 78 -137 167 l0 47 57 -7
c31 -4 62 -9 69 -12 9 -3 6 12 -8 49 -25 66 -18 168 12 168 4 0 11 -11 14 -25z"/>
<path d="M567 733 c-14 -13 -7 -43 12 -53 25 -13 27 -13 46 6 15 15 15 18 -1
35 -17 19 -45 25 -57 12z"/>
<path d="M852 728 c-17 -17 -15 -45 4 -52 17 -6 64 18 64 32 0 14 -23 32 -40
32 -9 0 -21 -5 -28 -12z"/>
<path d="M650 395 c12 -15 30 -12 30 6 0 5 -10 9 -21 9 -18 0 -19 -2 -9 -15z"/>
<path d="M790 402 c0 -14 11 -21 26 -15 21 8 17 23 -6 23 -11 0 -20 -4 -20 -8z"/>
<path d="M695 330 c3 -5 21 -10 40 -10 19 0 37 5 40 10 4 6 -12 10 -40 10 -28
0 -44 -4 -40 -10z"/>
</g>
</svg>
